<svg preserveAspectRatio="none" width="100%" height="100%" overflow="visible" style="display: block;" viewBox="0 0 14 14" fill="none" xmlns="http://www.w3.org/2000/svg">
<g id="SVG">
<path id="Vector" d="M7 4.08333V12.25" stroke="var(--stroke-0, #9CA3AF)" stroke-linecap="round" stroke-linejoin="round"/>
<path id="Vector_2" d="M1.75 10.5C1.59529 10.5 1.44692 10.4385 1.33752 10.3291C1.22812 10.2197 1.16667 10.0714 1.16667 9.91667V2.33333C1.16667 2.17862 1.22812 2.03025 1.33752 1.92085C1.44692 1.81146 1.59529 1.75 1.75 1.75H4.66667C5.28551 1.75 5.879 1.99583 6.31658 2.43342C6.75417 2.871 7 3.46449 7 4.08333C7 3.46449 7.24583 2.871 7.68342 2.43342C8.121 1.99583 8.7145 1.75 9.33333 1.75H12.25C12.4047 1.75 12.5531 1.81146 12.6625 1.92085C12.7719 2.03025 12.8333 2.17862 12.8333 2.33333V9.91667C12.8333 10.0714 12.7719 10.2197 12.6625 10.3291C12.5531 10.4385 12.4047 10.5 12.25 10.5H8.75C8.28587 10.5 7.84075 10.6844 7.51256 11.0126C7.18437 11.3408 7 11.7859 7 12.25C7 11.7859 6.81563 11.3408 6.48744 11.0126C6.15925 10.6844 5.71413 10.5 5.25 10.5H1.75Z" stroke="var(--stroke-0, #9CA3AF)" stroke-linecap="round" stroke-linejoin="round"/>
</g>
</svg>
