<svg preserveAspectRatio="none" width="100%" height="100%" overflow="visible" style="display: block;" viewBox="0 0 12.1123 12.907" fill="none" xmlns="http://www.w3.org/2000/svg">
<g id="Group">
<path id="Vector" d="M2.166 8.24H1.61067C1.46473 8.24 1.32023 8.20919 1.18542 8.14932C1.0506 8.08946 0.928124 8.00171 0.824977 7.8911C0.72183 7.7805 0.640038 7.64919 0.584277 7.5047C0.528515 7.36021 0.499878 7.20536 0.5 7.049V1.691C0.499878 1.53464 0.528515 1.37979 0.584277 1.2353C0.640038 1.09081 0.72183 0.959505 0.824977 0.848897C0.928124 0.738289 1.0506 0.650545 1.18542 0.590679C1.32023 0.530814 1.46473 0.5 1.61067 0.5H6.61147C6.7574 0.499869 6.90193 0.530552 7.03679 0.590297C7.17165 0.650041 7.2942 0.737675 7.39743 0.84819C7.50066 0.958704 7.58256 1.08993 7.63843 1.23438C7.69431 1.37882 7.72307 1.53364 7.72307 1.69V2.286M5.5008 4.668H10.5016C11.1157 4.668 11.6123 5.201 11.6123 5.858V11.217C11.6123 11.5326 11.4953 11.8353 11.287 12.0585C11.0787 12.2816 10.7962 12.407 10.5016 12.407H5.5008C5.35487 12.4071 5.21034 12.3764 5.07548 12.3167C4.94062 12.257 4.81807 12.1693 4.71484 12.0588C4.6116 11.9483 4.52971 11.8171 4.47383 11.6726C4.41796 11.5282 4.3892 11.3734 4.3892 11.217V5.858C4.3892 5.201 4.8876 4.668 5.5008 4.668Z" stroke="var(--stroke-0, #9CA3AF)" stroke-linecap="round" stroke-linejoin="round"/>
</g>
</svg>
