<svg preserveAspectRatio="none" width="100%" height="100%" overflow="visible" style="display: block;" viewBox="0 0 14 14" fill="none" xmlns="http://www.w3.org/2000/svg">
<g id="SVG">
<path id="Vector" d="M7.4375 1.75V3.5C7.4375 3.61603 7.39141 3.72731 7.30936 3.80936C7.22731 3.89141 7.11603 3.9375 7 3.9375C6.88397 3.9375 6.77269 3.89141 6.69064 3.80936C6.60859 3.72731 6.5625 3.61603 6.5625 3.5V1.75C6.5625 1.63397 6.60859 1.52269 6.69064 1.44064C6.77269 1.35859 6.88397 1.3125 7 1.3125C7.11603 1.3125 7.22731 1.35859 7.30936 1.44064C7.39141 1.52269 7.4375 1.63397 7.4375 1.75ZM9.47461 4.96289C9.53212 4.96286 9.58906 4.9515 9.64217 4.92945C9.69528 4.9074 9.74353 4.87509 9.78414 4.83438L11.0217 3.59734C11.1038 3.51525 11.1499 3.40391 11.1499 3.28781C11.1499 3.17172 11.1038 3.06037 11.0217 2.97828C10.9396 2.89619 10.8283 2.85007 10.7122 2.85007C10.5961 2.85007 10.4847 2.89619 10.4027 2.97828L9.16563 4.21586C9.1044 4.27701 9.06269 4.35495 9.04576 4.43981C9.02884 4.52467 9.03746 4.61265 9.07053 4.69261C9.1036 4.77257 9.15965 4.84093 9.23157 4.88904C9.3035 4.93715 9.38808 4.96285 9.47461 4.96289ZM12.25 6.5625H10.5C10.384 6.5625 10.2727 6.60859 10.1906 6.69064C10.1086 6.77269 10.0625 6.88397 10.0625 7C10.0625 7.11603 10.1086 7.22731 10.1906 7.30936C10.2727 7.39141 10.384 7.4375 10.5 7.4375H12.25C12.366 7.4375 12.4773 7.39141 12.5594 7.30936C12.6414 7.22731 12.6875 7.11603 12.6875 7C12.6875 6.88397 12.6414 6.77269 12.5594 6.69064C12.4773 6.60859 12.366 6.5625 12.25 6.5625ZM9.78414 9.16563C9.70143 9.08704 9.59129 9.04388 9.4772 9.04534C9.36312 9.0468 9.25412 9.09277 9.17344 9.17344C9.09277 9.25412 9.0468 9.36312 9.04534 9.4772C9.04388 9.59129 9.08704 9.70143 9.16563 9.78414L10.4027 11.0217C10.4847 11.1038 10.5961 11.1499 10.7122 11.1499C10.8283 11.1499 10.9396 11.1038 11.0217 11.0217C11.1038 10.9396 11.1499 10.8283 11.1499 10.7122C11.1499 10.5961 11.1038 10.4847 11.0217 10.4027L9.78414 9.16563ZM7 10.0625C6.88397 10.0625 6.77269 10.1086 6.69064 10.1906C6.60859 10.2727 6.5625 10.384 6.5625 10.5V12.25C6.5625 12.366 6.60859 12.4773 6.69064 12.5594C6.77269 12.6414 6.88397 12.6875 7 12.6875C7.11603 12.6875 7.22731 12.6414 7.30936 12.5594C7.39141 12.4773 7.4375 12.366 7.4375 12.25V10.5C7.4375 10.384 7.39141 10.2727 7.30936 10.1906C7.22731 10.1086 7.11603 10.0625 7 10.0625ZM4.21586 9.16563L2.97828 10.4027C2.89619 10.4847 2.85007 10.5961 2.85007 10.7122C2.85007 10.8283 2.89619 10.9396 2.97828 11.0217C3.06037 11.1038 3.17172 11.1499 3.28781 11.1499C3.40391 11.1499 3.51525 11.1038 3.59734 11.0217L4.83438 9.78414C4.91296 9.70143 4.95612 9.59129 4.95466 9.4772C4.9532 9.36312 4.90723 9.25412 4.82656 9.17344C4.74588 9.09277 4.63688 9.0468 4.5228 9.04534C4.40871 9.04388 4.29857 9.08704 4.21586 9.16563ZM3.9375 7C3.9375 6.88397 3.89141 6.77269 3.80936 6.69064C3.72731 6.60859 3.61603 6.5625 3.5 6.5625H1.75C1.63397 6.5625 1.52269 6.60859 1.44064 6.69064C1.35859 6.77269 1.3125 6.88397 1.3125 7C1.3125 7.11603 1.35859 7.22731 1.44064 7.30936C1.52269 7.39141 1.63397 7.4375 1.75 7.4375H3.5C3.61603 7.4375 3.72731 7.39141 3.80936 7.30936C3.89141 7.22731 3.9375 7.11603 3.9375 7ZM3.59734 2.97828C3.51525 2.89619 3.40391 2.85007 3.28781 2.85007C3.17172 2.85007 3.06037 2.89619 2.97828 2.97828C2.89619 3.06037 2.85007 3.17172 2.85007 3.28781C2.85007 3.40391 2.89619 3.51525 2.97828 3.59734L4.21586 4.83438C4.29857 4.91296 4.40871 4.95612 4.5228 4.95466C4.63688 4.9532 4.74588 4.90723 4.82656 4.82656C4.90723 4.74588 4.9532 4.63688 4.95466 4.5228C4.95612 4.40871 4.91296 4.29857 4.83438 4.21586L3.59734 2.97828Z" fill="var(--fill-0, #9CA3AF)"/>
</g>
</svg>
