<svg width="350" height="350" viewBox="0 0 350 350" fill="none" xmlns="http://www.w3.org/2000/svg">
<path d="M153.422 89.5981C155.1 89.4456 157.45 89.4491 159.177 89.4798C180.271 89.8146 205.554 94.0768 217.082 114.012C223.719 125.49 223.795 139.692 223.644 152.541C223.589 158.069 223.584 163.598 223.629 169.127C223.68 175.771 223.497 185.274 227.228 190.883C235.99 203.784 251.187 196.447 261.752 208.065C271.94 219.266 272.112 237.124 261.002 247.738C248.923 259.277 228.24 254.397 213.146 254.029C213.276 237.337 213.662 219.582 213.399 202.991C212.29 202.969 210.973 202.829 209.849 202.738C208.191 206.661 206.234 210.45 203.993 214.072C191.871 233.633 176.195 247.75 153.577 253.864C136.111 258.587 121.934 258.157 106.381 248.47C105.249 247.744 104.156 246.959 103.106 246.118C87.0968 233.199 83.6133 209.788 93.9995 192.37C97.2423 186.932 101.62 181.293 106.938 177.741C132.345 160.84 164.48 163.341 192.314 152.281C202.967 148.354 212.748 141.009 211.781 128.263C210.758 114.803 198.833 105.269 185.395 107.103C167.312 109.57 162.439 127.305 152.616 139.837C141.335 154.229 121.612 157.145 106.995 145.783C102.231 142.157 98.7758 134.823 98.5308 128.754C97.8988 113.093 109.371 101.069 123.216 95.8646C134.028 91.8001 142.481 90.7418 153.422 89.5981ZM151.887 221.299C167.051 233.724 185.545 224.687 196.4 211.352C209.118 195.73 212.692 174.648 212.35 154.975C212.347 154.785 212.211 154.511 212.134 154.343C211.621 154.169 211.835 154.14 211.39 154.233C207.75 155.368 204.207 156.874 200.549 158.09C194.714 159.993 188.957 162.128 183.291 164.489C176.662 167.186 169.887 170.038 164.057 174.285C154.465 181.272 145.382 192.124 145.045 204.531C144.885 210.399 147.283 217.459 151.887 221.299ZM264.767 236.6C265.362 234.529 265.86 232.761 266.185 230.641C268.002 218.703 261.49 207.344 249.772 203.622C249.542 203.548 249.389 203.537 249.146 203.509C250.007 204.866 253.187 205.68 254.545 206.561C263.325 212.266 266.555 223.888 264.67 233.801C264.505 234.659 264.315 236.056 264.432 236.922C264.752 236.702 264.672 236.834 264.767 236.6ZM114.538 177.203C106.66 181.483 99.805 187.09 96.4533 196.063C96.3855 196.244 96.3283 196.689 96.3073 196.898L96.5253 197.112L96.6458 197.082C100.259 190.567 105.06 185.039 110.911 180.404C111.993 179.547 114.889 178.119 114.91 177.414L114.538 177.203ZM122.115 148.956C121.08 147.475 113.618 145.859 111.147 143.37C108.881 141.088 107.237 139.645 105.241 136.72C104.024 134.938 103.165 130.745 102.293 130.14C103.007 136.108 105.058 139.839 109.713 143.745C112.441 146.034 118.503 148.564 122.115 148.956ZM260.575 245.092C261.145 244.135 261.925 243.012 262.117 241.955C261.88 241.456 262.067 241.629 261.632 241.352C261.14 242.235 260.215 243.699 260.072 244.617C260.335 244.952 260.235 244.922 260.575 245.092Z" fill="black"/>
<path d="M258.961 209.661C264.336 214.911 266.903 222.6 265.69 230.565C265.631 230.954 265.562 231.331 265.491 231.7C266.371 223.938 264.277 215.469 258.961 209.661Z" fill="white" fill-opacity="0.027451" stroke="white"/>
<path d="M109.845 180.621C105.083 184.516 101.034 189.022 97.7773 194.189C100.466 188.358 104.758 184.066 109.845 180.621Z" fill="white" fill-opacity="0.027451" stroke="white"/>
<path d="M104.12 135.671C104.341 136.173 104.576 136.634 104.828 137.003C106.857 139.975 108.542 141.457 110.792 143.723C111.469 144.405 112.459 145.002 113.536 145.533C114.62 146.068 115.835 146.557 116.987 147.007C117.561 147.231 118.117 147.445 118.638 147.651C117.704 147.357 116.733 147.002 115.776 146.601C113.489 145.642 111.343 144.461 110.034 143.362C107.74 141.437 106.11 139.574 104.964 137.477C104.647 136.897 104.368 136.297 104.12 135.671Z" fill="white" fill-opacity="0.027451" stroke="white"/>
<mask id="path-5-inside-1_37_169" fill="white">
<path d="M261.632 241.354C262.067 241.63 261.88 241.457 262.117 241.956C261.925 243.014 261.145 244.136 260.575 245.093C260.235 244.923 260.335 244.953 260.072 244.619C260.215 243.7 261.14 242.236 261.632 241.354Z"/>
</mask>
<path d="M261.632 241.354C262.067 241.63 261.88 241.457 262.117 241.956C261.925 243.014 261.145 244.136 260.575 245.093C260.235 244.923 260.335 244.953 260.072 244.619C260.215 243.7 261.14 242.236 261.632 241.354Z" fill="white" fill-opacity="0.027451"/>
<path d="M261.632 241.354L262.169 240.51L261.275 239.942L260.759 240.866L261.632 241.354ZM262.117 241.956L263.101 242.135L263.159 241.818L263.02 241.526L262.117 241.956ZM260.575 245.093L260.127 245.987L260.958 246.404L261.434 245.605L260.575 245.093ZM260.072 244.619L259.084 244.465L259.018 244.894L259.285 245.236L260.072 244.619ZM261.632 241.354L261.096 242.197C261.157 242.236 261.206 242.267 261.245 242.29C261.288 242.317 261.305 242.327 261.317 242.335C261.329 242.343 261.305 242.328 261.271 242.299C261.227 242.263 261.175 242.21 261.127 242.141C261.083 242.078 261.061 242.026 261.056 242.016C261.054 242.01 261.053 242.009 261.057 242.017C261.06 242.026 261.063 242.034 261.07 242.052C261.098 242.124 261.141 242.232 261.214 242.386L262.117 241.956L263.02 241.526C262.975 241.431 262.952 241.373 262.935 241.328C262.928 241.312 262.91 241.264 262.892 241.222C262.871 241.173 262.833 241.092 262.771 241.002C262.633 240.803 262.465 240.695 262.4 240.653C262.364 240.631 262.323 240.605 262.292 240.586C262.256 240.565 262.217 240.54 262.169 240.51L261.632 241.354ZM262.117 241.956L261.133 241.777C261.066 242.149 260.883 242.583 260.61 243.084C260.33 243.597 260.03 244.054 259.716 244.582L260.575 245.093L261.434 245.605C261.69 245.175 262.065 244.593 262.366 244.041C262.673 243.477 262.976 242.821 263.101 242.135L262.117 241.956ZM260.575 245.093L261.023 244.199C260.982 244.179 260.955 244.165 260.936 244.155C260.916 244.144 260.912 244.141 260.916 244.144C260.922 244.147 260.94 244.159 260.965 244.179C260.991 244.2 261.015 244.224 261.036 244.246C261.054 244.267 261.064 244.281 261.062 244.278C261.058 244.272 261.053 244.265 261.033 244.236C260.996 244.183 260.941 244.106 260.859 244.001L260.072 244.619L259.285 245.236C259.335 245.299 259.366 245.343 259.395 245.384C259.413 245.409 259.476 245.504 259.553 245.589C259.751 245.808 259.991 245.919 260.127 245.987L260.575 245.093ZM260.072 244.619L261.06 244.772C261.103 244.494 261.295 244.031 261.606 243.438C261.913 242.855 262.232 242.331 262.505 241.841L261.632 241.354L260.759 240.866C260.54 241.258 260.151 241.908 259.836 242.507C259.526 243.097 259.184 243.824 259.084 244.465L260.072 244.619Z" fill="white" mask="url(#path-5-inside-1_37_169)"/>
</svg>
