<svg width="350" height="350" viewBox="0 0 350 350" fill="none" xmlns="http://www.w3.org/2000/svg">
<path d="M159.149 90.9795H159.152C169.626 91.1457 181.041 92.2885 191.226 95.8135C201.394 99.333 210.251 105.195 215.783 114.763C222.182 125.829 222.296 139.608 222.145 152.523V152.525C222.103 156.678 222.089 160.832 222.104 164.985L222.129 169.139C222.154 172.424 222.119 176.555 222.557 180.557C222.992 184.538 223.912 188.606 225.979 191.714L225.983 191.72L225.987 191.727C230.739 198.722 237.298 200.194 243.522 201.427C249.617 202.633 255.371 203.623 260.18 208.582L260.643 209.074C270.33 219.725 270.437 236.65 259.966 246.653C254.333 252.034 246.61 253.675 238.174 253.849C233.969 253.935 229.653 253.657 225.408 253.328C221.726 253.043 218.072 252.718 214.659 252.578C214.799 236.34 215.155 219.096 214.898 202.967L214.875 201.519L213.428 201.491L213.027 201.479C212.075 201.438 211.006 201.326 209.971 201.242L208.89 201.154L208.468 202.153C206.942 205.765 205.157 209.261 203.127 212.614L202.718 213.282C190.743 232.604 175.349 246.425 153.186 252.416C136.012 257.059 122.295 256.607 107.192 247.207C106.377 246.684 105.58 246.129 104.809 245.543L104.044 244.947C88.6506 232.522 85.2644 209.949 95.2881 193.139C98.4784 187.788 102.717 182.363 107.771 178.987C120.209 170.714 134.34 167.157 149.003 164.292C163.572 161.445 178.757 159.275 192.833 153.688C203.645 149.703 214.325 141.956 213.276 128.149C212.188 113.816 199.473 103.668 185.192 105.616C175.601 106.925 169.542 112.314 164.705 118.798C162.302 122.019 160.169 125.555 158.06 128.999C155.935 132.468 153.83 135.856 151.436 138.911C140.643 152.681 121.853 155.432 107.915 144.599L107.909 144.595L107.903 144.59L107.503 144.272C105.515 142.635 103.744 140.239 102.416 137.525C101.002 134.635 100.142 131.487 100.029 128.693C99.4322 113.891 110.278 102.33 123.743 97.2686C134.362 93.2769 142.652 92.2317 153.564 91.0908C155.153 90.947 157.426 90.9488 159.149 90.9795ZM212.116 152.736C211.813 152.657 211.559 152.679 211.398 152.703C211.293 152.719 211.152 152.75 211.084 152.765L211.013 152.779L210.943 152.801C209.08 153.382 207.25 154.055 205.452 154.726C204.096 155.231 202.761 155.734 201.42 156.206L200.084 156.664C194.215 158.578 188.424 160.725 182.726 163.1C176.111 165.791 169.171 168.703 163.173 173.072C153.437 180.165 143.901 191.392 143.545 204.49C143.376 210.69 145.882 218.244 150.926 222.451L150.937 222.459C158.951 229.026 167.899 229.921 176.192 227.422C184.423 224.942 191.997 219.137 197.563 212.299C210.199 196.778 213.962 176.11 213.871 156.812L213.85 154.949C213.843 154.573 213.722 154.248 213.668 154.107C213.603 153.94 213.52 153.767 213.497 153.718L213.228 153.129L212.614 152.922L212.462 152.863C212.451 152.859 212.443 152.855 212.428 152.849C212.415 152.843 212.394 152.834 212.371 152.824C212.328 152.806 212.235 152.767 212.116 152.736ZM210.861 155.979C211.066 175.212 207.423 195.436 195.237 210.405C189.949 216.902 182.848 222.283 175.326 224.549C168.101 226.726 160.479 226.043 153.51 220.673L152.838 220.139C148.68 216.663 146.394 210.104 146.544 204.572C146.863 192.856 155.492 182.379 164.939 175.497C170.602 171.372 177.213 168.581 183.856 165.878L183.868 165.873C189.497 163.527 195.216 161.407 201.014 159.517L201.022 159.514C202.883 158.895 204.713 158.203 206.5 157.536C207.969 156.988 209.413 156.457 210.861 155.979Z" stroke="#003399" stroke-width="3"/>
</svg>
