<svg width="350" height="350" viewBox="0 0 350 350" fill="none" xmlns="http://www.w3.org/2000/svg">
<path d="M153.329 89.1352C155.007 88.9827 157.357 88.9862 159.083 89.0169C180.177 89.3517 205.461 93.6139 216.988 113.549C223.626 125.027 223.701 139.229 223.55 152.078C223.495 157.606 223.49 163.135 223.535 168.664C223.586 175.308 223.403 184.811 227.134 190.42C235.897 203.321 251.094 195.984 261.659 207.602C271.846 218.803 272.019 236.661 260.909 247.275C248.829 258.814 228.147 253.934 213.052 253.566C213.183 236.874 213.568 219.119 213.305 202.528C212.196 202.506 210.879 202.366 209.755 202.275C208.098 206.198 206.14 209.987 203.899 213.609C191.777 233.17 176.101 247.287 153.484 253.401C136.017 258.124 121.841 257.694 106.288 248.007C105.155 247.281 104.062 246.496 103.013 245.655C87.003 232.736 83.5195 209.325 93.9058 191.907C97.1485 186.469 101.526 180.83 106.845 177.278C132.251 160.377 164.386 162.878 192.22 151.818C202.873 147.891 212.655 140.546 211.687 127.8C210.665 114.34 198.739 104.806 185.302 106.64C167.218 109.107 162.345 126.842 152.522 139.374C141.241 153.766 121.518 156.682 106.901 145.32C102.138 141.694 98.682 134.36 98.437 128.291C97.805 112.63 109.278 100.606 123.122 95.4017C133.935 91.3372 142.388 90.2789 153.329 89.1352ZM151.793 220.836C166.957 233.261 185.451 224.224 196.307 210.889C209.024 195.267 212.599 174.185 212.257 154.512C212.253 154.322 212.117 154.048 212.04 153.88C211.527 153.706 211.741 153.677 211.296 153.77C207.656 154.905 204.113 156.411 200.455 157.627C194.62 159.53 188.863 161.665 183.197 164.026C176.568 166.723 169.793 169.575 163.963 173.822C154.371 180.809 145.289 191.661 144.951 204.068C144.792 209.936 147.189 216.996 151.793 220.836ZM264.674 236.137C265.269 234.066 265.766 232.298 266.091 230.178C267.909 218.24 261.396 206.881 249.678 203.159C249.448 203.085 249.295 203.074 249.052 203.046C249.914 204.403 253.094 205.217 254.451 206.098C263.231 211.803 266.461 223.425 264.576 233.338C264.411 234.196 264.221 235.593 264.339 236.459C264.659 236.239 264.579 236.371 264.674 236.137ZM114.444 176.74C106.566 181.02 99.7113 186.627 96.3595 195.6C96.2918 195.781 96.2345 196.226 96.2135 196.435L96.4315 196.649L96.552 196.619C100.165 190.104 104.966 184.576 110.817 179.941C111.899 179.084 114.795 177.656 114.816 176.951L114.444 176.74ZM122.022 148.493C120.986 147.012 113.524 145.396 111.053 142.907C108.787 140.625 107.143 139.182 105.147 136.257C103.93 134.475 103.071 130.282 102.199 129.677C102.914 135.645 104.965 139.376 109.619 143.282C112.347 145.571 118.409 148.101 122.022 148.493ZM260.481 244.629C261.051 243.672 261.831 242.549 262.024 241.492C261.786 240.993 261.974 241.166 261.539 240.889C261.046 241.772 260.121 243.236 259.979 244.154C260.241 244.489 260.141 244.459 260.481 244.629Z" fill="white"/>
<path d="M258.961 209.661C264.336 214.911 266.903 222.6 265.69 230.565C265.631 230.954 265.562 231.331 265.491 231.7C266.371 223.938 264.277 215.469 258.961 209.661Z" fill="white" fill-opacity="0.027451" stroke="white"/>
<path d="M109.845 180.621C105.083 184.516 101.034 189.022 97.7773 194.189C100.466 188.358 104.758 184.066 109.845 180.621Z" fill="white" fill-opacity="0.027451" stroke="white"/>
<path d="M104.12 135.671C104.341 136.173 104.576 136.634 104.828 137.003C106.857 139.975 108.542 141.457 110.792 143.723C111.469 144.405 112.459 145.002 113.536 145.533C114.62 146.068 115.835 146.557 116.987 147.007C117.561 147.231 118.117 147.445 118.638 147.651C117.704 147.357 116.733 147.002 115.776 146.601C113.489 145.642 111.343 144.461 110.034 143.362C107.74 141.437 106.11 139.574 104.964 137.477C104.647 136.897 104.368 136.297 104.12 135.671Z" fill="white" fill-opacity="0.027451" stroke="white"/>
<mask id="path-5-inside-1_65_544" fill="white">
<path d="M261.632 241.354C262.067 241.63 261.88 241.457 262.117 241.956C261.925 243.014 261.145 244.136 260.575 245.093C260.235 244.923 260.335 244.953 260.072 244.619C260.215 243.7 261.14 242.236 261.632 241.354Z"/>
</mask>
<path d="M261.632 241.354C262.067 241.63 261.88 241.457 262.117 241.956C261.925 243.014 261.145 244.136 260.575 245.093C260.235 244.923 260.335 244.953 260.072 244.619C260.215 243.7 261.14 242.236 261.632 241.354Z" fill="white" fill-opacity="0.027451"/>
<path d="M261.632 241.354L262.169 240.51L261.275 239.942L260.759 240.866L261.632 241.354ZM262.117 241.956L263.101 242.135L263.159 241.818L263.02 241.526L262.117 241.956ZM260.575 245.093L260.127 245.987L260.958 246.404L261.434 245.605L260.575 245.093ZM260.072 244.619L259.084 244.465L259.018 244.894L259.285 245.236L260.072 244.619ZM261.632 241.354L261.096 242.197C261.157 242.236 261.206 242.267 261.245 242.29C261.288 242.317 261.305 242.327 261.317 242.335C261.329 242.343 261.305 242.328 261.271 242.299C261.227 242.263 261.175 242.21 261.127 242.141C261.083 242.078 261.061 242.026 261.056 242.016C261.054 242.01 261.053 242.009 261.057 242.017C261.06 242.026 261.063 242.034 261.07 242.052C261.098 242.124 261.141 242.232 261.214 242.386L262.117 241.956L263.02 241.526C262.975 241.431 262.952 241.373 262.935 241.328C262.928 241.312 262.91 241.264 262.892 241.222C262.871 241.173 262.833 241.092 262.771 241.002C262.633 240.803 262.465 240.695 262.4 240.653C262.364 240.631 262.323 240.605 262.292 240.586C262.256 240.565 262.217 240.54 262.169 240.51L261.632 241.354ZM262.117 241.956L261.133 241.777C261.066 242.149 260.883 242.583 260.61 243.084C260.33 243.597 260.03 244.054 259.716 244.582L260.575 245.093L261.434 245.605C261.69 245.175 262.065 244.593 262.366 244.041C262.673 243.477 262.976 242.821 263.101 242.135L262.117 241.956ZM260.575 245.093L261.023 244.199C260.982 244.179 260.955 244.165 260.936 244.155C260.916 244.144 260.912 244.141 260.916 244.144C260.922 244.147 260.94 244.159 260.965 244.179C260.991 244.2 261.015 244.224 261.036 244.246C261.054 244.267 261.064 244.281 261.062 244.278C261.058 244.272 261.053 244.265 261.033 244.236C260.996 244.183 260.941 244.106 260.859 244.001L260.072 244.619L259.285 245.236C259.335 245.299 259.366 245.343 259.395 245.384C259.413 245.409 259.476 245.504 259.553 245.589C259.751 245.808 259.991 245.919 260.127 245.987L260.575 245.093ZM260.072 244.619L261.06 244.772C261.103 244.494 261.295 244.031 261.606 243.438C261.913 242.855 262.232 242.331 262.505 241.841L261.632 241.354L260.759 240.866C260.54 241.258 260.151 241.908 259.836 242.507C259.526 243.097 259.184 243.824 259.084 244.465L260.072 244.619Z" fill="white" mask="url(#path-5-inside-1_65_544)"/>
</svg>
